<svg width="25" height="25" viewBox="0 0 25 25" fill="none" xmlns="http://www.w3.org/2000/svg">
<path d="M2.85208 0.489342C2.19963 -0.163114 1.14179 -0.163114 0.48934 0.489342C-0.163113 1.1418 -0.163113 2.19964 0.48934 2.85209L10.1373 12.5001L0.48944 22.1479C-0.163013 22.8004 -0.163014 23.8582 0.48944 24.5107C1.14189 25.1631 2.19973 25.1631 2.85218 24.5107L12.5 14.8628L22.1478 24.5107C22.8003 25.1631 23.8581 25.1631 24.5106 24.5107C25.163 23.8582 25.163 22.8004 24.5106 22.1479L14.8627 12.5001L24.5107 2.85209C25.1631 2.19964 25.1631 1.1418 24.5107 0.489342C23.8582 -0.163114 22.8004 -0.163114 22.1479 0.489342L12.5 10.1373L2.85208 0.489342Z" fill="#FF6969"/>
</svg>
