<svg width="20" height="21" viewBox="0 0 20 21" fill="none" xmlns="http://www.w3.org/2000/svg">
<g filter="url(#filter0_d)">
<path d="M9.66699 12H15.0003" stroke="white" stroke-linecap="round" stroke-linejoin="round"/>
<path d="M12.8849 1.39918C13.1173 1.14359 13.4324 1 13.761 1C13.9237 1 14.0848 1.03525 14.2351 1.10374C14.3855 1.17224 14.5221 1.27263 14.6371 1.39918C14.7522 1.52574 14.8434 1.67598 14.9057 1.84134C14.968 2.00669 15 2.18392 15 2.36289C15 2.54187 14.968 2.7191 14.9057 2.88445C14.8434 3.0498 14.7522 3.20005 14.6371 3.3266L7.33627 11.3575L5 12L5.58407 9.43011L12.8849 1.39918Z" stroke="white" stroke-linecap="round" stroke-linejoin="round"/>
</g>
<defs>
<filter id="filter0_d" x="0.5" y="0.5" width="19.0003" height="20" filterUnits="userSpaceOnUse" color-interpolation-filters="sRGB">
<feFlood flood-opacity="0" result="BackgroundImageFix"/>
<feColorMatrix in="SourceAlpha" type="matrix" values="0 0 0 0 0 0 0 0 0 0 0 0 0 0 0 0 0 0 127 0"/>
<feOffset dy="4"/>
<feGaussianBlur stdDeviation="2"/>
<feColorMatrix type="matrix" values="0 0 0 0 0 0 0 0 0 0 0 0 0 0 0 0 0 0 0.15 0"/>
<feBlend mode="normal" in2="BackgroundImageFix" result="effect1_dropShadow"/>
<feBlend mode="normal" in="SourceGraphic" in2="effect1_dropShadow" result="shape"/>
</filter>
</defs>
</svg>
