<svg width="24" height="21" viewBox="0 0 24 21" fill="none" xmlns="http://www.w3.org/2000/svg">
<path d="M11.8687 12.7509C11.8687 12.2979 11.4891 11.9307 11.0209 11.9307H0.847976C0.37978 11.9307 0.000231743 12.2979 0.000231743 12.7509C0.000231743 13.2039 0.37978 13.5712 0.847976 13.5712H11.0209C11.4891 13.5712 11.8687 13.2039 11.8687 12.7509Z" fill="white"/>
<g opacity="0.5">
<path d="M11.0209 15.2119C11.4891 15.2119 11.8687 15.5792 11.8687 16.0322C11.8687 16.4852 11.4891 16.8524 11.0209 16.8524H4.23895C3.77076 16.8524 3.39121 16.4852 3.39121 16.0322C3.39121 15.5792 3.77076 15.2119 4.23895 15.2119H11.0209Z" fill="white"/>
<path d="M11.0209 18.4929C11.4891 18.4929 11.8687 18.8601 11.8687 19.3131C11.8687 19.7662 11.4891 20.1334 11.0209 20.1334H4.23895C3.77076 20.1334 3.39121 19.7662 3.39121 19.3131C3.39121 18.8601 3.77076 18.4929 4.23895 18.4929H11.0209Z" fill="white"/>
</g>
<path fill-rule="evenodd" clip-rule="evenodd" d="M22.7709 0.172011C22.5499 -0.057337 22.1916 -0.0573371 21.9705 0.172011L21.4768 0.684329C20.8457 0.371482 20.0669 0.486276 19.5442 1.02871L13.5413 7.25779L16.7429 10.58L22.7457 4.35089C23.2685 3.80845 23.3791 3.00031 23.0776 2.34542L23.5713 1.8331C23.7923 1.60375 23.7923 1.2319 23.5713 1.00255L22.7709 0.172011ZM20.3554 5.17016L16.7429 8.91887L15.1421 7.25779L18.7547 3.50907L20.3554 5.17016ZM21.3845 4.10232L21.9453 3.52034C22.1664 3.29099 22.1664 2.91915 21.9453 2.6898L21.145 1.85926C20.9239 1.62991 20.5656 1.62991 20.3446 1.85926L19.7837 2.44123L21.3845 4.10232Z" fill="white"/>
<path d="M11.8687 12.3037L13.0694 7.73549L16.2708 11.0579L11.8687 12.3037Z" fill="white"/>
</svg>
