<svg width="175" height="73" viewBox="0 0 175 73" fill="none" xmlns="http://www.w3.org/2000/svg">
<path d="M78.0724 51.0307C77.2896 52.3836 76.2794 53.4607 75.0415 54.2608C73.8035 55.061 72.2852 55.4615 70.487 55.4615C69.2175 55.4615 68.0588 55.2249 67.0114 54.7515C65.964 54.2776 65.0594 53.6353 64.2977 52.8234C63.5359 52.0116 62.9432 51.0592 62.5205 49.9654C62.0968 48.8716 61.8857 47.6938 61.8857 46.4309C61.8857 45.1681 62.0968 43.9842 62.5205 42.8792C62.9436 41.7746 63.5364 40.8162 64.2977 40.0043C65.0594 39.193 65.964 38.5501 67.0114 38.0763C68.0588 37.6029 69.217 37.3662 70.487 37.3662C72.2852 37.3662 73.814 37.7841 75.073 38.6178C76.3315 39.4521 77.3421 40.5459 78.1039 41.8988L74.6446 44.1985C74.2209 43.4772 73.7027 42.8741 73.0895 42.389C72.4753 41.9044 71.6614 41.6621 70.6455 41.6621C69.3546 41.6621 68.3129 42.1019 67.5196 42.9815C66.7263 43.861 66.3294 45.0108 66.3294 46.4314C66.3294 47.852 66.7263 49.008 67.5196 49.8982C68.3129 50.7895 69.3551 51.2348 70.6455 51.2348C71.6614 51.2348 72.4753 50.9926 73.0895 50.5075C73.7027 50.0229 74.2209 49.4198 74.6446 48.698L78.0724 51.0307Z" fill="#333333"/>
<path d="M91.4663 53.7706C90.895 54.244 90.1915 54.6161 89.3557 54.8869C88.5194 55.1571 87.6363 55.293 86.7055 55.293C85.5836 55.293 84.5261 55.0676 83.5318 54.6166C82.5369 54.1656 81.6696 53.5457 80.9293 52.7562C80.1885 51.9673 79.5963 51.0373 79.1516 49.9659C78.7074 48.8949 78.4854 47.7278 78.4854 46.465C78.4854 45.2251 78.7074 44.0585 79.1516 42.9641C79.5963 41.8703 80.188 40.9236 80.9293 40.1229C81.6696 39.3228 82.5369 38.6911 83.5318 38.2284C84.5261 37.7668 85.5836 37.5352 86.7055 37.5352C87.6363 37.5352 88.5194 37.6761 89.3557 37.9581C90.191 38.2401 90.895 38.6178 91.4663 39.0912V37.7047H95.8779V55.0564H91.4663V53.7706ZM87.0861 41.7965C86.4719 41.7965 85.9064 41.9207 85.3882 42.1686C84.8695 42.4169 84.4201 42.7493 84.0395 43.1667C83.6583 43.5841 83.357 44.0798 83.1349 44.6545C82.9128 45.2297 82.8015 45.8333 82.8015 46.4645C82.8015 47.1191 82.9128 47.7273 83.1349 48.2908C83.357 48.8547 83.6583 49.351 84.0395 49.7791C84.4206 50.2076 84.8695 50.54 85.3882 50.7767C85.9064 51.0139 86.4724 51.132 87.0861 51.132C87.7209 51.132 88.3078 51.0139 88.8475 50.7767C89.3872 50.54 89.8577 50.2076 90.2598 49.7791C90.6615 49.351 90.9738 48.8547 91.1959 48.2908C91.418 47.7273 91.5293 47.1186 91.5293 46.4645C91.5293 45.8333 91.4128 45.2297 91.1802 44.6545C90.9471 44.0798 90.63 43.5836 90.2283 43.1667C89.8262 42.7493 89.3557 42.4169 88.816 42.1686C88.2763 41.9207 87.6998 41.7965 87.0861 41.7965Z" fill="#333333"/>
<path d="M102.001 39.4293C102.213 39.2038 102.461 38.9727 102.748 38.7355C103.033 38.4988 103.367 38.279 103.747 38.0759C104.128 37.8733 104.546 37.7099 105.001 37.5857C105.456 37.462 105.958 37.3994 106.509 37.3994C107.44 37.3994 108.302 37.5857 109.095 37.9578C109.889 38.3299 110.582 38.9335 111.174 39.7673C111.809 39.046 112.56 38.4709 113.428 38.0423C114.295 37.6142 115.321 37.3994 116.506 37.3994C117.501 37.3994 118.39 37.5633 119.172 37.8901C119.955 38.2169 120.622 38.6846 121.172 39.2934C121.722 39.9022 122.14 40.6295 122.426 41.475C122.712 42.3204 122.854 43.2625 122.854 44.2994V55.0555H118.474V45.0776C118.474 44.0632 118.236 43.2513 117.76 42.6426C117.284 42.0343 116.612 41.7295 115.745 41.7295C114.75 41.7295 113.952 42.0623 113.349 42.7276C112.746 43.3929 112.444 44.3121 112.444 45.4838V55.056H108.096V45.0776C108.096 44.0632 107.858 43.2513 107.382 42.6426C106.906 42.0343 106.234 41.7295 105.367 41.7295C104.372 41.7295 103.574 42.0623 102.971 42.7276C102.368 43.3929 102.066 44.3121 102.066 45.4838V55.056H97.6548V37.7043H102.003V39.4293H102.001Z" fill="#333333"/>
<path d="M133.804 55.293C132.873 55.293 131.99 55.152 131.154 54.8701C130.318 54.5881 129.615 54.2104 129.044 53.737V61.0091H124.632V37.7047H129.044V39.0576C129.615 38.5842 130.318 38.2121 131.154 37.9413C131.989 37.6711 132.873 37.5352 133.804 37.5352C134.904 37.5352 135.957 37.7606 136.962 38.2116C137.967 38.6631 138.84 39.2825 139.581 40.072C140.321 40.8614 140.913 41.7965 141.358 42.8791C141.802 43.9617 142.024 45.1233 142.024 46.3632C142.024 47.6265 141.802 48.7982 141.358 49.8809C140.913 50.9635 140.321 51.9052 139.581 52.7053C138.84 53.5059 137.967 54.1376 136.962 54.5998C135.957 55.0614 134.904 55.293 133.804 55.293ZM133.423 41.797C132.788 41.797 132.201 41.9156 131.662 42.1523C131.122 42.389 130.651 42.7218 130.249 43.1504C129.847 43.579 129.535 44.0753 129.313 44.6382C129.091 45.2022 128.98 45.8109 128.98 46.465C128.98 47.1196 129.096 47.7278 129.329 48.2913C129.562 48.8552 129.879 49.3454 130.281 49.7628C130.683 50.1807 131.154 50.513 131.694 50.7604C132.233 51.0088 132.81 51.1325 133.424 51.1325C134.016 51.1325 134.577 51.0088 135.106 50.7604C135.634 50.513 136.09 50.1807 136.47 49.7628C136.851 49.3454 137.153 48.8552 137.375 48.2913C137.597 47.7278 137.708 47.1191 137.708 46.465C137.708 45.8109 137.597 45.2022 137.375 44.6382C137.153 44.0753 136.851 43.579 136.47 43.1504C136.089 42.7218 135.634 42.389 135.106 42.1523C134.576 41.9156 134.015 41.797 133.423 41.797Z" fill="#333333"/>
<path d="M154.528 55.0558V53.3308C153.977 53.9625 153.3 54.4587 152.497 54.8191C151.692 55.1795 150.793 55.3602 149.799 55.3602C148.847 55.3602 147.985 55.1912 147.212 54.8527C146.44 54.5147 145.779 54.0409 145.228 53.4321C144.678 52.8233 144.255 52.0904 143.959 51.2337C143.662 50.3766 143.515 49.4187 143.515 48.3584V37.7041H147.894V47.5471C147.894 48.5844 148.159 49.4243 148.688 50.0666C149.216 50.7095 149.957 51.0307 150.909 51.0307C151.988 51.0307 152.856 50.6922 153.512 50.0157C154.168 49.3393 154.496 48.3925 154.496 47.1745V37.7041H158.875V55.0558H154.528Z" fill="#333333"/>
<path d="M164.875 49.6105C164.875 49.8808 164.922 50.1521 165.018 50.4224C165.113 50.6926 165.277 50.941 165.51 51.1665C165.742 51.3925 166.05 51.5844 166.43 51.7417C166.811 51.8995 167.298 51.9784 167.89 51.9784C168.716 51.9784 169.324 51.8094 169.715 51.4709C170.106 51.1324 170.302 50.7603 170.302 50.3547C170.302 50.0839 170.228 49.8533 170.08 49.6609C169.932 49.4695 169.73 49.3178 169.477 49.2043C169.223 49.0918 168.921 48.9962 168.572 48.9167C168.223 48.8379 167.847 48.7646 167.446 48.6969C166.726 48.5615 165.97 48.4149 165.176 48.2571C164.383 48.0998 163.653 47.8341 162.986 47.462C162.32 47.0905 161.769 46.5657 161.336 45.8892C160.901 45.2128 160.685 44.2884 160.685 43.1157C160.685 42.3268 160.844 41.5938 161.161 40.9174C161.479 40.2409 161.928 39.6495 162.51 39.1415C163.092 38.634 163.795 38.2344 164.621 37.9407C165.446 37.6476 166.377 37.501 167.414 37.501C169.487 37.501 171.138 38.0196 172.365 39.057C173.592 40.0943 174.269 41.492 174.396 43.2511H169.985C169.964 42.9355 169.916 42.6424 169.842 42.3716C169.768 42.1013 169.636 41.8702 169.445 41.6783C169.255 41.4869 169.001 41.3347 168.684 41.2217C168.366 41.1093 167.964 41.0528 167.478 41.0528C166.843 41.0528 166.298 41.1713 165.843 41.408C165.388 41.6447 165.161 42.0336 165.161 42.5747C165.161 42.8907 165.256 43.1554 165.447 43.3697C165.637 43.584 165.901 43.7586 166.24 43.894C166.578 44.0294 166.97 44.1424 167.415 44.2325C167.859 44.3225 168.324 44.4131 168.811 44.5027C169.509 44.6376 170.223 44.7903 170.954 44.9593C171.683 45.1283 172.35 45.394 172.953 45.7544C173.556 46.1152 174.048 46.5942 174.429 47.1918C174.809 47.7893 175 48.5732 175 49.5428C175 50.5802 174.809 51.4653 174.429 52.1977C174.048 52.9307 173.529 53.5339 172.874 54.0072C172.217 54.4806 171.44 54.8308 170.541 55.0558C169.642 55.2807 168.685 55.3942 167.669 55.3942C166.547 55.3942 165.547 55.2471 164.669 54.9545C163.791 54.6613 163.04 54.2556 162.416 53.7364C161.792 53.2178 161.305 52.609 160.956 51.9102C160.607 51.2113 160.421 50.4442 160.4 49.61H164.875V49.6105Z" fill="#333333"/>
<path d="M20.8105 63.5278C13.8207 63.5278 8.13428 57.4677 8.13428 50.0186H13.1243C13.1243 54.5349 16.5722 58.2098 20.8105 58.2098V63.5278Z" fill="#333333"/>
<path d="M43.4098 0V7.62579L58.8366 24.1488L69.1472 13.2018V32.7997H74.2251V0L58.8366 16.3994L43.4098 0ZM103.721 21.894L93.4493 0.00101799L78.0589 32.8003H83.7515L86.3711 27.3051L88.9077 21.894L93.4488 12.2597L97.9484 21.894H92.0518L89.7273 27.3448H100.494L103.043 32.8003H108.839L106.278 27.3448L103.721 21.894ZM128.157 17.0987C129.388 15.2506 129.966 13.2034 129.966 10.9078C129.966 7.91184 128.968 5.37246 126.967 3.1965C124.963 1.06482 122.539 0.00101799 119.732 0.00101799H103.001L105.642 5.58522L119.732 5.49207C121.116 5.49207 122.31 6.02856 123.312 7.09185C124.348 8.15973 124.851 9.42764 124.851 10.9078C124.851 12.4236 124.347 13.7353 123.312 14.7991C122.31 15.867 121.117 16.3989 119.732 16.3989L115.569 16.3632L123.341 32.8003H128.98L123.204 21.0343C125.009 20.254 126.968 18.9423 128.157 17.0987ZM131.645 0L134.442 5.4936H144.676V32.7992H149.83V5.4936H160.064V0H131.645ZM37.4063 44.8879L37.4669 50.0186C37.4669 59.5613 30.1825 67.3245 21.2287 67.3245C12.2745 67.3245 4.99005 59.5613 4.99005 50.0186C4.99005 41.0572 11.4153 33.6656 19.6144 32.7992H34.4074C36.9081 32.7992 39.0239 31.8561 40.7548 30.0115C42.5243 28.1256 43.4098 25.8708 43.4098 23.2464C43.4098 20.6225 42.5243 18.3671 40.7548 16.4813C39.0239 14.6362 36.9081 13.6935 34.4074 13.6935H26.7518C25.6356 13.6935 24.7516 13.2833 23.9812 12.4638C23.25 11.6438 22.9042 10.7006 22.9042 9.55285C22.9042 9.01942 22.9816 8.48701 23.174 7.99481C23.3655 7.50261 23.6354 7.05164 23.9812 6.68262C24.3661 6.27287 24.7511 5.9858 25.2507 5.78068C25.713 5.57555 26.213 5.4936 26.7518 5.4936V0C24.251 0 22.1352 0.942662 20.4039 2.82849C18.673 4.71484 17.788 6.92846 17.788 9.55285C17.788 12.2174 18.6735 14.4728 20.4039 16.3586C22.1357 18.2038 24.251 19.1464 26.7518 19.1464H34.4074C35.4844 19.1464 36.3699 19.5567 37.1388 20.3762C37.8696 21.1961 38.2927 22.1393 38.2927 23.2464C38.2927 23.82 38.1776 24.3535 37.9851 24.8457C37.7927 25.3786 37.5238 25.7883 37.177 26.1573C36.8312 26.5264 36.4081 26.8134 35.9075 27.0181C35.4462 27.2232 34.7751 27.3453 34.2369 27.3453L21.2287 27.3952C9.52303 27.3952 0 37.5441 0 50.0186C0 62.4936 9.52303 72.6425 21.2287 72.6425C32.8671 72.6425 42.3481 62.6091 42.456 50.1998L56.3573 50.182L56.3511 44.864L37.4063 44.8879ZM20.8099 53.1382V50.0191H17.7876C18.2236 53.1382 20.8099 53.1382 20.8099 53.1382Z" fill="#00ACE9"/>
</svg>
